# xmcd CD database file
#
# Track frame offsets:
#	150
#	14396
#	28162
#	42320
#	56332
#	69214
#	81968
#	97164
#	111445
#	124468
#	139041
#	152494
#	166682
#	180451
#	193653
#	208582
#	222987
#	238000
#	252179
#	265824
#	280872
#	294940
#	310197
#	325035
#	338922
#
# Disc length: 4697 seconds
#
# Revision: 0
# Processed by: cddbd v1.5.2PL0 Copyright (c) Steve Scherf et al.
# Submitted via: CDex 1.51
#
DISCID=6a125719
DTITLE=Bob Haring and His Orchestra - Recordings From The Late 1920s
DYEAR=1930
DGENRE=Jazz
TTITLE0=Footloose
TTITLE1=Lay My Head Beneath A Rose
TTITLE2=Hush-A-Bye
TTITLE3=My Pal Jerry
TTITLE4=It's Too Late To Be Sorry Now
TTITLE5=Tell Me To-Night
TTITLE6=Underneath The Stars With You
TTITLE7=Chloe (Song Of The Swamp)
TTITLE8=Somebody Lied About Me
TTITLE9=Where The Shy Little Violets Grow
TTITLE10=Lonesome In The Moonlight
TTITLE11=Sonny Boy
TTITLE12=Blue Night
TTITLE13=To Know You Is To Love You
TTITLE14=You're The Cream In My Coffee
TTITLE15=Wedding Bells (Are Breaking Up The Old Gang Of Mine)
TTITLE16=Deep Night
TTITLE17=Some Sweet Day
TTITLE18=Weary RIver
TTITLE19=Louise
TTITLE20=Huggable, Kissable You
TTITLE21=My Song Of The Nile
TTITLE22=If You Believed In Me
TTITLE23=My Man Is On The Make
TTITLE24=Why Do You Suppose
EXTD=YEAR: 1930
EXTT0=
EXTT1=
EXTT2=
EXTT3=
EXTT4=
EXTT5=
EXTT6=
EXTT7=
EXTT8=
EXTT9=
EXTT10=
EXTT11=
EXTT12=
EXTT13=
EXTT14=
EXTT15=
EXTT16=
EXTT17=
EXTT18=
EXTT19=
EXTT20=
EXTT21=
EXTT22=
EXTT23=
EXTT24=
PLAYORDER=
